<?xml version="1.0" encoding="UTF-8" standalone="no"?>
<!DOCTYPE svg PUBLIC "-//W3C//DTD SVG 1.1//EN" "http://www.w3.org/Graphics/SVG/1.1/DTD/svg11.dtd">
<svg width="100%" height="100%" viewBox="0 0 1266 1266" version="1.1" xmlns="http://www.w3.org/2000/svg" xmlns:xlink="http://www.w3.org/1999/xlink" xml:space="preserve" xmlns:serif="http://www.serif.com/" style="fill-rule:evenodd;clip-rule:evenodd;stroke-linecap:round;stroke-linejoin:round;stroke-miterlimit:1.5;">
    <g transform="matrix(1,0,0,1,-7255.42,-9359.43)">
        <g id="first-one" serif:id="first one" transform="matrix(1,0,0,1,1244.82,2241.03)">
            <g transform="matrix(1.01467,0,0,1,-1356.19,651.497)">
                <rect x="7263.01" y="6469.67" width="1241.63" height="1259.84" style="stroke:black;stroke-width:5.51px;"/>
            </g>
            <g transform="matrix(1,0,0,1,-8.29011,0.595835)">
                <g transform="matrix(1.00244,0,0,1.00244,650.403,-771.629)">
                    <g transform="matrix(1306.87,0,0,1306.87,5393.1,9035.41)">
                        <path d="M0.608,-0.477C0.601,-0.54 0.58,-0.588 0.543,-0.623C0.505,-0.658 0.458,-0.675 0.4,-0.675C0.365,-0.675 0.332,-0.668 0.301,-0.653C0.27,-0.638 0.242,-0.616 0.219,-0.588C0.196,-0.56 0.177,-0.526 0.164,-0.487C0.151,-0.448 0.144,-0.403 0.144,-0.354C0.144,-0.291 0.156,-0.236 0.18,-0.188C0.204,-0.14 0.236,-0.103 0.277,-0.076C0.318,-0.049 0.363,-0.036 0.412,-0.036C0.455,-0.036 0.498,-0.046 0.54,-0.066C0.582,-0.085 0.616,-0.114 0.643,-0.151L0.669,-0.13C0.64,-0.091 0.609,-0.06 0.576,-0.039C0.543,-0.018 0.51,-0.003 0.477,0.005C0.444,0.012 0.413,0.016 0.386,0.016C0.336,0.016 0.29,0.007 0.249,-0.011C0.207,-0.029 0.171,-0.054 0.141,-0.087C0.11,-0.119 0.087,-0.157 0.071,-0.2C0.054,-0.243 0.046,-0.289 0.046,-0.339C0.046,-0.386 0.053,-0.432 0.068,-0.477C0.082,-0.522 0.103,-0.562 0.132,-0.598C0.161,-0.634 0.197,-0.663 0.241,-0.684C0.284,-0.705 0.335,-0.716 0.393,-0.716C0.43,-0.716 0.466,-0.711 0.499,-0.701C0.532,-0.691 0.564,-0.676 0.595,-0.655L0.59,-0.709L0.644,-0.709L0.644,-0.477L0.608,-0.477Z" style="fill:white;fill-rule:nonzero;"/>
                    </g>
                </g>
                <g transform="matrix(0.360783,0,0,0.360783,5011.84,4271.97)">
                    <g transform="matrix(1306.87,0,0,1306.87,5393.1,9035.41)">
                        <path d="M0.046,-0C0.046,-0.035 0.051,-0.067 0.063,-0.094C0.074,-0.121 0.088,-0.147 0.107,-0.17C0.126,-0.193 0.147,-0.215 0.171,-0.237C0.194,-0.258 0.218,-0.281 0.243,-0.305C0.286,-0.346 0.318,-0.385 0.337,-0.42C0.356,-0.455 0.366,-0.489 0.366,-0.522C0.366,-0.547 0.363,-0.572 0.356,-0.596C0.349,-0.619 0.336,-0.639 0.318,-0.654C0.3,-0.669 0.275,-0.677 0.243,-0.677C0.216,-0.677 0.191,-0.67 0.17,-0.657C0.149,-0.643 0.134,-0.626 0.127,-0.606C0.134,-0.599 0.138,-0.592 0.141,-0.585C0.144,-0.577 0.145,-0.569 0.145,-0.562C0.145,-0.556 0.143,-0.549 0.141,-0.542C0.138,-0.535 0.132,-0.528 0.125,-0.523C0.118,-0.518 0.108,-0.515 0.096,-0.515C0.081,-0.516 0.07,-0.521 0.062,-0.532C0.054,-0.543 0.05,-0.555 0.05,-0.57C0.05,-0.584 0.054,-0.6 0.063,-0.617C0.072,-0.634 0.085,-0.65 0.103,-0.665C0.12,-0.68 0.142,-0.692 0.168,-0.702C0.194,-0.711 0.224,-0.716 0.259,-0.716C0.286,-0.716 0.312,-0.713 0.337,-0.707C0.362,-0.7 0.384,-0.69 0.404,-0.676C0.424,-0.662 0.44,-0.644 0.452,-0.621C0.463,-0.598 0.469,-0.569 0.469,-0.535C0.469,-0.518 0.466,-0.5 0.459,-0.481C0.452,-0.462 0.44,-0.441 0.425,-0.419C0.409,-0.396 0.389,-0.373 0.364,-0.348C0.339,-0.323 0.309,-0.295 0.273,-0.266C0.228,-0.229 0.191,-0.194 0.162,-0.161C0.133,-0.128 0.116,-0.099 0.111,-0.076L0.288,-0.071C0.321,-0.07 0.349,-0.07 0.375,-0.071C0.4,-0.072 0.419,-0.077 0.434,-0.087C0.448,-0.096 0.455,-0.114 0.455,-0.14L0.485,-0.14L0.479,-0L0.046,-0Z" style="fill:white;fill-rule:nonzero;"/>
                    </g>
                </g>
            </g>
        </g>
    </g>
</svg>
