<svg id="eRB1AmiMbNn1" xmlns="http://www.w3.org/2000/svg" xmlns:xlink="http://www.w3.org/1999/xlink" viewBox="0 0 20000 1100" shape-rendering="geometricPrecision" text-rendering="geometricPrecision">
<style><![CDATA[
#eRB1AmiMbNn2_to {animation: eRB1AmiMbNn2_to__to 10000ms linear infinite normal forwards}@keyframes eRB1AmiMbNn2_to__to { 0% {transform: translate(-951.278236px,573.468232px)} 96% {transform: translate(20999.999573px,573.468232px);animation-timing-function: step-end} 100% {transform: translate(-951.278236px,573.468232px)}} #eRB1AmiMbNn3_tr {animation: eRB1AmiMbNn3_tr__tr 10000ms linear infinite normal forwards}@keyframes eRB1AmiMbNn3_tr__tr { 0% {transform: translate(914.018147px,1142.109531px) rotate(0deg)} 96% {transform: translate(914.018147px,1142.109531px) rotate(1080deg)} 100% {transform: translate(914.018147px,1142.109531px) rotate(1080deg)}} #eRB1AmiMbNn7_tr {animation: eRB1AmiMbNn7_tr__tr 10000ms linear infinite normal forwards}@keyframes eRB1AmiMbNn7_tr__tr { 0% {transform: translate(1008.8615px,1114.033px) rotate(0deg)} 96% {transform: translate(1008.8615px,1114.033px) rotate(-1080deg)} 100% {transform: translate(1008.8615px,1114.033px) rotate(-1080deg)}} #eRB1AmiMbNn8_tr {animation: eRB1AmiMbNn8_tr__tr 10000ms linear infinite normal forwards}@keyframes eRB1AmiMbNn8_tr__tr { 0% {transform: translate(457.69668px,1062.658697px) rotate(0deg)} 96% {transform: translate(457.69668px,1062.658697px) rotate(1080deg)} 100% {transform: translate(457.69668px,1062.658697px) rotate(1080deg)}} #eRB1AmiMbNn14_tr {animation: eRB1AmiMbNn14_tr__tr 10000ms linear infinite normal forwards}@keyframes eRB1AmiMbNn14_tr__tr { 0% {transform: translate(1603.700681px,1062.658697px) rotate(0deg)} 96% {transform: translate(1603.700681px,1062.658697px) rotate(1080deg)} 100% {transform: translate(1603.700681px,1062.658697px) rotate(1080deg)}} #eRB1AmiMbNn36_tr {animation: eRB1AmiMbNn36_tr__tr 10000ms linear infinite normal forwards}@keyframes eRB1AmiMbNn36_tr__tr { 0% {transform: translate(914.002526px,1142.108512px) rotate(0deg)} 96% {transform: translate(914.002526px,1142.108512px) rotate(1080deg)} 100% {transform: translate(914.002526px,1142.108512px) rotate(1080deg)}} #eRB1AmiMbNn40_tr {animation: eRB1AmiMbNn40_tr__tr 10000ms linear infinite normal forwards}@keyframes eRB1AmiMbNn40_tr__tr { 0% {transform: translate(1008.8615px,1114.033px) rotate(0deg)} 96% {transform: translate(1008.8615px,1114.033px) rotate(-1080deg)} 100% {transform: translate(1008.8615px,1114.033px) rotate(-1080deg)}}
]]></style>
<g id="eRB1AmiMbNn2_to" transform="translate(-951.278236,573.468232)"><g transform="translate(-1030.698664,-936.856231)" clip-rule="evenodd"><g id="eRB1AmiMbNn3_tr" transform="translate(914.018147,1142.109531) rotate(0)"><g transform="scale(1.99224,1.99224) translate(-972.125924,-1039.879997)" clip-rule="evenodd"><g transform="matrix(-1.0524-.098609-.098609-1.18558 2097.72 2368.6)" clip-rule="evenodd"><path d="M972.121,1039.88l31.609,59.49" clip-rule="evenodd" fill="none" fill-rule="evenodd" stroke="#fff" stroke-width="6.86" stroke-linejoin="round" stroke-miterlimit="1.5"/></g><g transform="translate(-75.8731-147.797)" clip-rule="evenodd"><g id="eRB1AmiMbNn7_tr" transform="translate(1008.8615,1114.033) rotate(0)"><rect width="73.481" height="11.726" rx="0" ry="0" transform="translate(-36.7405,-5.863)" clip-rule="evenodd" fill="#cecedf" fill-rule="evenodd" stroke="#cecedf" stroke-width="1.12" stroke-linejoin="round" stroke-miterlimit="1.5"/></g></g></g></g><g id="eRB1AmiMbNn8_tr" transform="translate(457.69668,1062.658697) rotate(0)"><g transform="scale(1.99224,1.99224) translate(-743.076477,-999.999848)" clip-rule="evenodd"><path d="M568.076,1000h350m-175-175v350M619.629,875.96l246.894,248.08m.592-247.487L619.036,1123.45" clip-rule="evenodd" fill="none" fill-rule="evenodd" stroke="#cecedf" stroke-width="1.67" stroke-linecap="round" stroke-linejoin="round" stroke-miterlimit="1.5"/><g transform="matrix(.965926-.258819 0.258819 0.965926-233.499 226.396)" clip-rule="evenodd"><path d="M568.076,1000h350m-175-175v350M619.629,875.96l246.894,248.08m.592-247.487L619.036,1123.45" clip-rule="evenodd" fill="none" fill-rule="evenodd" stroke="#cecedf" stroke-width="1.67" stroke-linecap="round" stroke-linejoin="round" stroke-miterlimit="1.5"/></g><g transform="matrix(1.02857 0 0 1.02857-753.496-28.5714)" clip-rule="evenodd"><path d="M1455,825c96.59,0,175,78.415,175,175c0,96.59-78.41,175-175,175s-175-78.41-175-175c0-96.585,78.41-175,175-175Zm0,20c85.55,0,155,69.453,155,155c0,85.55-69.45,155-155,155s-155-69.45-155-155c0-85.547,69.45-155,155-155Z" clip-rule="evenodd" fill="#fff" fill-rule="evenodd" stroke="#fff" stroke-width="1.08" stroke-linecap="round" stroke-linejoin="round" stroke-miterlimit="1.5"/></g></g></g><g id="eRB1AmiMbNn14_tr" transform="translate(1603.700681,1062.658697) rotate(0)"><g transform="scale(1.99224,1.99224) translate(-743.076477,-999.999848)" clip-rule="evenodd"><path d="M568.076,1000h350m-175-175v350M619.629,875.96l246.894,248.08m.592-247.487L619.036,1123.45" clip-rule="evenodd" fill="none" fill-rule="evenodd" stroke="#cecedf" stroke-width="1.67" stroke-linecap="round" stroke-linejoin="round" stroke-miterlimit="1.5"/><g transform="matrix(.965926-.258819 0.258819 0.965926-233.499 226.396)" clip-rule="evenodd"><path d="M568.076,1000h350m-175-175v350M619.629,875.96l246.894,248.08m.592-247.487L619.036,1123.45" clip-rule="evenodd" fill="none" fill-rule="evenodd" stroke="#cecedf" stroke-width="1.67" stroke-linecap="round" stroke-linejoin="round" stroke-miterlimit="1.5"/></g><g transform="matrix(1.02857 0 0 1.02857-753.496-28.5714)" clip-rule="evenodd"><path d="M1455,825c96.59,0,175,78.415,175,175c0,96.59-78.41,175-175,175s-175-78.41-175-175c0-96.585,78.41-175,175-175Zm0,20c85.55,0,155,69.453,155,155c0,85.55-69.45,155-155,155s-155-69.45-155-155c0-85.547,69.45-155,155-155Z" clip-rule="evenodd" fill="#fff" fill-rule="evenodd" stroke="#fff" stroke-width="1.08" stroke-linecap="round" stroke-linejoin="round" stroke-miterlimit="1.5"/></g></g></g><g transform="matrix(1.99224 0 0 1.99224-664.09-511.211)" clip-rule="evenodd"><path d="M563.076,752.5c20.697,0,37.5,16.803,37.5,37.5s-16.803,37.5-37.5,37.5-37.5-16.803-37.5-37.5s16.803-37.5,37.5-37.5Zm2.4,63.85c0-.663-.538-1.201-1.2-1.201h-2.4c-.663,0-1.2.538-1.2,1.201v7.3c0,.663.537,1.201,1.2,1.201h2.4c.662,0,1.2-.538,1.2-1.201v-7.3Zm9.901-2.925c-.254-.612-.956-.903-1.568-.649l-2.218.918c-.612.254-.903.956-.649,1.568l2.794,6.745c.253.612.956.903,1.568.65l2.217-.919c.612-.253.903-.956.65-1.568l-2.794-6.745Zm-24.602,0c.253-.612.956-.903,1.568-.649l2.217.918c.612.254.903.956.65,1.568l-2.794,6.745c-.254.612-.956.903-1.568.65l-2.218-.919c-.612-.253-.903-.956-.649-1.568l2.794-6.745Zm36.853-.57c-.234-.234-.614-.234-.848,0l-.849.849c-.234.234-.234.614,0,.848l.884.884c.234.235.614.235.849,0l.848-.848c.234-.234.234-.615,0-.849l-.884-.884Zm-49.104,0c.234-.234.614-.234.848,0l.849.849c.234.234.234.614,0,.848l-.884.884c-.235.235-.615.235-.849,0l-.849-.848c-.234-.234-.234-.615,0-.849l.885-.884ZM563.076,766.5c12.97,0,23.5,10.53,23.5,23.5s-10.53,23.5-23.5,23.5-23.5-10.53-23.5-23.5s10.53-23.5,23.5-23.5Zm-21.62,43.423c.234-.235.615-.235.849,0l.848.848c.234.234.234.615,0,.849l-.884.884c-.234.234-.614.234-.848,0l-.849-.849c-.234-.234-.234-.614,0-.848l.884-.884Zm43.24,0c-.235-.235-.615-.235-.849,0l-.849.848c-.234.234-.234.615,0,.849l.885.884c.234.234.614.234.848,0l.849-.849c.234-.234.234-.614,0-.848l-.884-.884Zm-40.307-2.933c.234-.234.614-.234.848,0l.849.849c.234.234.234.614,0,.848l-.884.884c-.234.234-.615.234-.849,0l-.848-.848c-.235-.234-.235-.615,0-.849l.884-.884Zm37.374,0c-.234-.234-.614-.234-.849,0l-.848.849c-.234.234-.234.614,0,.848l.884.884c.234.234.614.234.849,0l.848-.848c.234-.234.234-.615,0-.849l-.884-.884Zm-42.112-4.689c.611-.253.902-.956.649-1.568l-.918-2.217c-.254-.612-.957-.903-1.568-.65l-6.746,2.794c-.612.254-.903.956-.649,1.568l.918,2.217c.254.612.956.903,1.568.65l6.746-2.794Zm48.687-4.435c-.612-.253-1.314.038-1.568.65l-.918,2.217c-.254.612.037,1.315.649,1.568l6.745,2.794c.612.253,1.315-.038,1.568-.65l.919-2.217c.253-.612-.038-1.314-.65-1.568l-6.745-2.794ZM536.726,787.6c.663,0,1.2.538,1.2,1.2v2.4c0,.662-.537,1.2-1.2,1.2h-7.301c-.662,0-1.2-.538-1.2-1.2v-2.4c0-.662.538-1.2,1.2-1.2h7.301Zm52.699,0c-.662,0-1.2.538-1.2,1.2v2.4c0,.662.538,1.2,1.2,1.2h7.301c.663,0,1.2-.538,1.2-1.2v-2.4c0-.662-.537-1.2-1.2-1.2h-7.301Zm-51.611-5.466c.611.253,1.314-.038,1.568-.65l.918-2.217c.253-.612-.038-1.315-.649-1.568l-6.746-2.794c-.612-.253-1.314.038-1.568.65l-.918,2.217c-.254.612.037,1.314.649,1.568l6.746,2.794Zm48.687-4.435c-.612.253-.903.956-.649,1.568l.918,2.217c.254.612.956.903,1.568.65l6.745-2.794c.612-.254.903-.956.65-1.568l-.919-2.217c-.253-.612-.956-.903-1.568-.65l-6.745,2.794Zm-4.738-4.689c-.234.234-.614.234-.849,0l-.848-.849c-.234-.234-.234-.614,0-.848l.884-.884c.234-.234.614-.234.849,0l.848.848c.234.234.234.615,0,.849l-.884.884Zm-37.374,0c.234.234.614.234.848,0l.849-.849c.234-.234.234-.614,0-.848l-.884-.884c-.234-.234-.615-.234-.849,0l-.848.848c-.235.234-.235.615,0,.849l.884.884Zm40.307-2.933c-.235.235-.615.235-.849,0l-.849-.848c-.234-.234-.234-.615,0-.849l.885-.884c.234-.234.614-.234.848,0l.849.849c.234.234.234.614,0,.848l-.884.884Zm-43.24,0c.234.235.615.235.849,0l.848-.848c.234-.234.234-.615,0-.849l-.884-.884c-.234-.234-.614-.234-.848,0l-.849.849c-.234.234-.234.614,0,.848l.884.884Zm-2.932-2.932c.234.234.614.234.848,0l.849-.849c.234-.234.234-.614,0-.848l-.884-.884c-.235-.235-.615-.235-.849,0l-.849.848c-.234.234-.234.615,0,.849l.885.884Zm49.104,0c-.234.234-.614.234-.848,0l-.849-.849c-.234-.234-.234-.614,0-.848l.884-.884c.234-.235.614-.235.849,0l.848.848c.234.234.234.615,0,.849l-.884.884Zm-36.853-.57c.253.612.956.903,1.568.649l2.217-.918c.612-.254.903-.956.65-1.568l-2.794-6.745c-.254-.612-.956-.903-1.568-.65l-2.218.919c-.612.253-.903.956-.649,1.568l2.794,6.745Zm20.167-1.837c-.254.612.037,1.314.649,1.568l2.218.918c.612.254,1.314-.037,1.568-.649l2.794-6.745c.253-.612-.038-1.315-.65-1.568l-2.217-.919c-.612-.253-1.315.038-1.568.65l-2.794,6.745Zm-10.266-1.088c0,.663.537,1.201,1.2,1.201h2.4c.662,0,1.2-.538,1.2-1.201v-7.3c0-.663-.538-1.201-1.2-1.201h-2.4c-.663,0-1.2.538-1.2,1.201v7.3Z" clip-rule="evenodd" fill="#cecedf" fill-rule="evenodd" stroke-linejoin="round" stroke-miterlimit="1.5"/></g><g transform="matrix(1.99224 0 0 1.99224 481.916-511.211)" clip-rule="evenodd"><path d="M563.076,752.5c20.697,0,37.5,16.803,37.5,37.5s-16.803,37.5-37.5,37.5-37.5-16.803-37.5-37.5s16.803-37.5,37.5-37.5Zm2.4,63.85c0-.663-.538-1.201-1.2-1.201h-2.4c-.663,0-1.2.538-1.2,1.201v7.3c0,.663.537,1.201,1.2,1.201h2.4c.662,0,1.2-.538,1.2-1.201v-7.3Zm9.901-2.925c-.254-.612-.956-.903-1.568-.649l-2.218.918c-.612.254-.903.956-.649,1.568l2.794,6.745c.253.612.956.903,1.568.65l2.217-.919c.612-.253.903-.956.65-1.568l-2.794-6.745Zm-24.602,0c.253-.612.956-.903,1.568-.649l2.217.918c.612.254.903.956.65,1.568l-2.794,6.745c-.254.612-.956.903-1.568.65l-2.218-.919c-.612-.253-.903-.956-.649-1.568l2.794-6.745Zm36.853-.57c-.234-.234-.614-.234-.848,0l-.849.849c-.234.234-.234.614,0,.848l.884.884c.234.235.614.235.849,0l.848-.848c.234-.234.234-.615,0-.849l-.884-.884Zm-49.104,0c.234-.234.614-.234.848,0l.849.849c.234.234.234.614,0,.848l-.884.884c-.235.235-.615.235-.849,0l-.849-.848c-.234-.234-.234-.615,0-.849l.885-.884ZM563.076,766.5c12.97,0,23.5,10.53,23.5,23.5s-10.53,23.5-23.5,23.5-23.5-10.53-23.5-23.5s10.53-23.5,23.5-23.5Zm-21.62,43.423c.234-.235.615-.235.849,0l.848.848c.234.234.234.615,0,.849l-.884.884c-.234.234-.614.234-.848,0l-.849-.849c-.234-.234-.234-.614,0-.848l.884-.884Zm43.24,0c-.235-.235-.615-.235-.849,0l-.849.848c-.234.234-.234.615,0,.849l.885.884c.234.234.614.234.848,0l.849-.849c.234-.234.234-.614,0-.848l-.884-.884Zm-40.307-2.933c.234-.234.614-.234.848,0l.849.849c.234.234.234.614,0,.848l-.884.884c-.234.234-.615.234-.849,0l-.848-.848c-.235-.234-.235-.615,0-.849l.884-.884Zm37.374,0c-.234-.234-.614-.234-.849,0l-.848.849c-.234.234-.234.614,0,.848l.884.884c.234.234.614.234.849,0l.848-.848c.234-.234.234-.615,0-.849l-.884-.884Zm-42.112-4.689c.611-.253.902-.956.649-1.568l-.918-2.217c-.254-.612-.957-.903-1.568-.65l-6.746,2.794c-.612.254-.903.956-.649,1.568l.918,2.217c.254.612.956.903,1.568.65l6.746-2.794Zm48.687-4.435c-.612-.253-1.314.038-1.568.65l-.918,2.217c-.254.612.037,1.315.649,1.568l6.745,2.794c.612.253,1.315-.038,1.568-.65l.919-2.217c.253-.612-.038-1.314-.65-1.568l-6.745-2.794ZM536.726,787.6c.663,0,1.2.538,1.2,1.2v2.4c0,.662-.537,1.2-1.2,1.2h-7.301c-.662,0-1.2-.538-1.2-1.2v-2.4c0-.662.538-1.2,1.2-1.2h7.301Zm52.699,0c-.662,0-1.2.538-1.2,1.2v2.4c0,.662.538,1.2,1.2,1.2h7.301c.663,0,1.2-.538,1.2-1.2v-2.4c0-.662-.537-1.2-1.2-1.2h-7.301Zm-51.611-5.466c.611.253,1.314-.038,1.568-.65l.918-2.217c.253-.612-.038-1.315-.649-1.568l-6.746-2.794c-.612-.253-1.314.038-1.568.65l-.918,2.217c-.254.612.037,1.314.649,1.568l6.746,2.794Zm48.687-4.435c-.612.253-.903.956-.649,1.568l.918,2.217c.254.612.956.903,1.568.65l6.745-2.794c.612-.254.903-.956.65-1.568l-.919-2.217c-.253-.612-.956-.903-1.568-.65l-6.745,2.794Zm-4.738-4.689c-.234.234-.614.234-.849,0l-.848-.849c-.234-.234-.234-.614,0-.848l.884-.884c.234-.234.614-.234.849,0l.848.848c.234.234.234.615,0,.849l-.884.884Zm-37.374,0c.234.234.614.234.848,0l.849-.849c.234-.234.234-.614,0-.848l-.884-.884c-.234-.234-.615-.234-.849,0l-.848.848c-.235.234-.235.615,0,.849l.884.884Zm40.307-2.933c-.235.235-.615.235-.849,0l-.849-.848c-.234-.234-.234-.615,0-.849l.885-.884c.234-.234.614-.234.848,0l.849.849c.234.234.234.614,0,.848l-.884.884Zm-43.24,0c.234.235.615.235.849,0l.848-.848c.234-.234.234-.615,0-.849l-.884-.884c-.234-.234-.614-.234-.848,0l-.849.849c-.234.234-.234.614,0,.848l.884.884Zm-2.932-2.932c.234.234.614.234.848,0l.849-.849c.234-.234.234-.614,0-.848l-.884-.884c-.235-.235-.615-.235-.849,0l-.849.848c-.234.234-.234.615,0,.849l.885.884Zm49.104,0c-.234.234-.614.234-.848,0l-.849-.849c-.234-.234-.234-.614,0-.848l.884-.884c.234-.235.614-.235.849,0l.848.848c.234.234.234.615,0,.849l-.884.884Zm-36.853-.57c.253.612.956.903,1.568.649l2.217-.918c.612-.254.903-.956.65-1.568l-2.794-6.745c-.254-.612-.956-.903-1.568-.65l-2.218.919c-.612.253-.903.956-.649,1.568l2.794,6.745Zm20.167-1.837c-.254.612.037,1.314.649,1.568l2.218.918c.612.254,1.314-.037,1.568-.649l2.794-6.745c.253-.612-.038-1.315-.65-1.568l-2.217-.919c-.612-.253-1.315.038-1.568.65l-2.794,6.745Zm-10.266-1.088c0,.663.537,1.201,1.2,1.201h2.4c.662,0,1.2-.538,1.2-1.201v-7.3c0-.663-.538-1.201-1.2-1.201h-2.4c-.663,0-1.2.538-1.2,1.201v7.3Z" clip-rule="evenodd" fill="#cecedf" fill-rule="evenodd" stroke-linejoin="round" stroke-miterlimit="1.5"/></g><g transform="matrix(1.99224 0 0 1.99224-1022.69-929.581)" clip-rule="evenodd"><path d="M743.076,1000l229.045,39.88" clip-rule="evenodd" fill="none" fill-rule="evenodd" stroke="#fff" stroke-width="8.37" stroke-linecap="round" stroke-linejoin="round" stroke-miterlimit="1.5"/></g><g transform="matrix(1.99224 0 0 1.99224-1022.69-929.581)" clip-rule="evenodd"><path d="M972.121,1039.88L879.409,723.404" clip-rule="evenodd" fill="none" fill-rule="evenodd" stroke="#fff" stroke-width="8.37" stroke-linejoin="round" stroke-miterlimit="1.5"/></g><g transform="matrix(1.99224 0 0 1.99224-1022.69-929.581)" clip-rule="evenodd"><path d="M743.076,1000l6.449-23.885L923.076,872.461L1203.91,728.916" clip-rule="evenodd" fill="none" fill-rule="evenodd" stroke="#fff" stroke-width="8.37" stroke-linecap="round" stroke-linejoin="round" stroke-miterlimit="1.5"/></g><g transform="matrix(1.99224 0 0 1.99224-1022.69-929.581)" clip-rule="evenodd"><path d="M1188.63,691.039L1318.31,1000" clip-rule="evenodd" fill="none" fill-rule="evenodd" stroke="#fff" stroke-width="8.37" stroke-linecap="round" stroke-linejoin="round" stroke-miterlimit="1.5"/></g><g transform="matrix(1.99224 0 0 1.99224-1022.69-929.581)" clip-rule="evenodd"><path d="M972.121,1039.88L1203.91,728.916" clip-rule="evenodd" fill="none" fill-rule="evenodd" stroke="#fff" stroke-width="8.37" stroke-linecap="round" stroke-linejoin="round" stroke-miterlimit="1.5"/></g><g transform="matrix(1.99224 0 0 1.99224-1022.69-929.581)" clip-rule="evenodd"><path d="M1188.63,691.039l20.55-3.31" clip-rule="evenodd" fill="none" fill-rule="evenodd" stroke="#fff" stroke-width="8.37" stroke-linejoin="round" stroke-miterlimit="1.5"/></g><g id="eRB1AmiMbNn36_tr" transform="translate(914.002526,1142.108512) rotate(0)"><g transform="scale(1.99224,1.99224) translate(-972.118078,-1039.879488)" clip-rule="evenodd"><g transform="matrix(1.0524 0.098609 0.098609 1.18558-153.476-288.841)" clip-rule="evenodd"><path d="M972.121,1039.88l31.609,59.49" clip-rule="evenodd" fill="none" fill-rule="evenodd" stroke="#fff" stroke-width="6.86" stroke-linejoin="round" stroke-miterlimit="1.5"/></g><g transform="translate(2.39236-.501928)" clip-rule="evenodd"><g id="eRB1AmiMbNn40_tr" transform="translate(1008.8615,1114.033) rotate(0)"><rect width="73.481" height="11.726" rx="0" ry="0" transform="translate(-36.7405,-5.863)" clip-rule="evenodd" fill="#cecedf" fill-rule="evenodd" stroke="#cecedf" stroke-width="1.12" stroke-linejoin="round" stroke-miterlimit="1.5"/></g></g></g></g><g transform="matrix(1.99224 0 0 1.99224-1022.69-929.581)" clip-rule="evenodd"><path d="M949.344,705.089c0,0-4.276-8.408-8.272-8.732-14.71-1.193-59.363,1.458-81.021,1.12-16.696-.261-40.498-4.243-48.929-3.15-3.303.428-.618,10.161-.618,10.161s29.508,15.391,41.227,16.8c11.356,1.365,19.221-7.598,29.255-9.9c10.839-2.486,24.386-3.971,35.779-5.021c6.289-.58,32.579-1.278,32.579-1.278Z" clip-rule="evenodd" fill="#fff" fill-rule="evenodd" stroke="#fff" stroke-width="1.67" stroke-linecap="round" stroke-linejoin="round" stroke-miterlimit="1.5"/></g><g transform="matrix(1.99224 0 0 1.99224-1022.69-929.581)" clip-rule="evenodd"><path d="M842.954,719.003l9.758,7.188l45.63-4.763l24.734-15.44" clip-rule="evenodd" fill="none" fill-rule="evenodd" stroke="#fff" stroke-width="1.67" stroke-linejoin="round" stroke-miterlimit="1.5"/></g><g transform="matrix(1.99224 0 0 1.99224-1064.78-931.485)" clip-rule="evenodd"><circle r="7.447" transform="translate(1191.91 667.78)" clip-rule="evenodd" fill="#fff" fill-rule="evenodd" stroke="#fff" stroke-width="1.67" stroke-linejoin="round" stroke-miterlimit="1.5"/></g><g transform="matrix(1.99224 0 0 1.99224-1022.69-929.581)" clip-rule="evenodd"><path d="M1170.78,674.271v-14.894l36.86,4.896l5.49-.931l5.63,2.547l5.09,4.901l11.3,9.675-1.3,4.797-1.88,8.431l1.89,3.79-3.32,3.98-3.23.185-3.16,5.071-6.68-.018-9.08-5.525.39-3.1-2.79-4.784l3.19-5.563-11.36-5.048-1.22-3.533-25.82-4.877Z" clip-rule="evenodd" fill="#fff" fill-rule="evenodd" stroke="#fff" stroke-width="1.67" stroke-linejoin="round" stroke-miterlimit="1.5"/></g></g></g></svg>
